<svg aria-hidden="true" style="position: absolute; width: 0; height: 0; overflow: hidden;" version="1.1" xmlns="http://www.w3.org/2000/svg" xmlns:xlink="http://www.w3.org/1999/xlink">
<defs>

<symbol id="icon-close" viewBox="0 0 32 32">
<path stroke-linejoin="round" stroke-linecap="round" stroke-miterlimit="4" stroke-width="2.3529" d="M24 8l-16 16M8 8l16 16"></path>
</symbol>
<symbol id="icon-open" viewBox="0 0 33 32">
<path stroke-linejoin="round" stroke-linecap="round" stroke-miterlimit="4" stroke-width="2.3529" d="M4.471 11.334h24M4.471 20.666h24"></path>
</symbol>
<symbol id="icon-facebook" viewBox="0 0 32 32">
<path d="M19.52 4.64h0.96v3.6h-1.2c-0.48 0-0.96 0-1.2 0.24s-0.24 0.48-0.24 1.040v1.28h2.64v3.040h-2.64v13.2h-4.080v-13.28h-2.16v-3.040h2.16v-1.040c0-1.76 0.24-3.040 0.72-3.6 0.72-1.040 2.16-1.52 4.32-1.52 0.24 0.080 0.48 0.080 0.72 0.080z"></path>
</symbol>
<symbol id="icon-instagram" viewBox="0 0 32 32">
<path d="M28.718 10.756c-0.016-1.134-0.233-2.213-0.617-3.208l0.021 0.063c-0.681-1.722-2.021-3.059-3.7-3.721l-0.044-0.015c-0.921-0.356-1.985-0.572-3.098-0.595l-0.010-0c-1.369-0.060-1.801-0.078-5.271-0.078s-3.916 0-5.273 0.078c-1.122 0.023-2.187 0.24-3.172 0.617l0.064-0.022c-1.724 0.678-3.063 2.015-3.729 3.693l-0.015 0.044c-0.357 0.918-0.574 1.981-0.595 3.091l-0 0.009c-0.062 1.369-0.080 1.801-0.080 5.266 0 3.467 0 3.909 0.080 5.266 0.021 1.061 0.222 2.108 0.596 3.104 0.682 1.721 2.021 3.057 3.7 3.72l0.044 0.015c0.99 0.386 2.041 0.604 3.106 0.64 1.369 0.060 1.803 0.078 5.275 0.078s3.916 0 5.275-0.080c1.122-0.023 2.187-0.238 3.172-0.615l-0.064 0.022c1.722-0.68 3.060-2.016 3.727-3.693l0.016-0.044c0.357-0.92 0.573-1.983 0.595-3.095l0-0.009c0.062-1.365 0.080-1.799 0.080-5.266-0.004-3.467-0.004-3.906-0.082-5.262zM15.989 22.532c-0.002 0-0.003 0-0.005 0-3.624 0-6.562-2.936-6.565-6.56v-0c0.002-3.624 2.941-6.562 6.565-6.562 0.002 0 0.004 0 0.006 0h-0c0.002 0 0.003 0 0.005 0 3.624 0 6.563 2.936 6.567 6.56v0c-0.004 3.624-2.943 6.56-6.567 6.56-0.002 0-0.004 0-0.006 0h0zM22.823 10.697c-0.845 0-1.53-0.685-1.53-1.53s0.685-1.53 1.53-1.53v0c0.844 0 1.529 0.685 1.529 1.529s-0.684 1.529-1.529 1.529v0z"></path>
<path d="M15.993 19.975c2.211 0 4.004-1.792 4.004-4.004s-1.792-4.004-4.004-4.004v0c-2.211 0-4.004 1.792-4.004 4.004s1.792 4.004 4.004 4.004v0z"></path>
</symbol>
<symbol id="icon-youtube" viewBox="0 0 32 32">
<path d="M24.24 6c-1.36-0.080-4.16-0.16-8.4-0.16h-0.56c-4.080 0-6.8 0.080-8.16 0.24-1.84 0.16-3.12 0.64-3.84 1.28-0.64 0.56-1.12 1.6-1.28 2.96-0.080 0.88-0.16 2.72-0.16 5.52v0.4c0 2.64 0.080 4.48 0.24 5.36 0.24 1.28 0.64 2.24 1.44 2.8 0.8 0.64 2.16 1.040 4.080 1.2 1.36 0.080 4.16 0.16 8.4 0.16h0.56c4.080 0 6.8-0.080 8.16-0.24 1.84-0.16 3.12-0.64 3.84-1.28 0.64-0.56 1.12-1.6 1.28-2.96 0.080-0.88 0.16-2.72 0.16-5.52v-0.4c0-2.64-0.080-4.48-0.24-5.36-0.24-1.28-0.64-2.24-1.44-2.8-0.8-0.64-2.16-1.040-4.080-1.2zM21.12 15.84l-8.8 5.28v-10.56l8.8 5.28z"></path>
</symbol>
</defs>
</svg>
